# xmcd
#
# Track frame offsets:
#	150
#	14860
#	30205
#	41041
#	60974
#	77582
#	87707
#	97917
#	111870
#	127620
#	145797
#	157067
#	190725
#
# Disc length: 3334 seconds
#
# Revision: 1
# Processed by: cddbd v1.5.2PL0 Copyright (c) Steve Scherf et al.
# Submitted via: audiograbber 1.83.01
#
DISCID=9d0d040d
DTITLE=Neznama smecka - Country hity 4
DYEAR=2003
DGENRE=Country
TTITLE0=At te country pohladi
TTITLE1=Pane muj
TTITLE2=Blues Folsomske veznice
TTITLE3=Dzinova laska
TTITLE4=Nemam rad zlutou
TTITLE5=Bigbit
TTITLE6=Kamarad
TTITLE7=Projizdim kolem dalnici
TTITLE8=Niagara
TTITLE9=Kazdy den
TTITLE10=Mravenci skala
TTITLE11=Smes 1
TTITLE12=Smes 2
EXTD=
EXTT0=
EXTT1=
EXTT2=
EXTT3=
EXTT4=
EXTT5=
EXTT6=
EXTT7=
EXTT8=
EXTT9=
EXTT10=
EXTT11=
EXTT12=
PLAYORDER=
